solid OpenSCAD_Model
  facet normal -1 -0 -0
    outer loop
      vertex 0 -1.75 0
      vertex 0 -1.75 1.7
      vertex 0 1.75 0
    endloop
  endfacet
  facet normal -1 0 0
    outer loop
      vertex 0 1.75 0
      vertex 0 -1.75 1.7
      vertex 0 -0.85 1.7
    endloop
  endfacet
  facet normal -1 0 0
    outer loop
      vertex 0 1.75 0
      vertex 0 -0.85 1.7
      vertex 0 -0.85 3.5
    endloop
  endfacet
  facet normal -1 0 -0
    outer loop
      vertex 0 0.85 1.7
      vertex 0 -0.85 3.5
      vertex 0 0.85 3.5
    endloop
  endfacet
  facet normal -1 0 0
    outer loop
      vertex 0 1.75 0
      vertex 0 -0.85 3.5
      vertex 0 0.85 1.7
    endloop
  endfacet
  facet normal -1 0 0
    outer loop
      vertex 0 1.75 1.7
      vertex 0 1.75 0
      vertex 0 0.85 1.7
    endloop
  endfacet
  facet normal 0 -1 0
    outer loop
      vertex 0 -1.75 1.7
      vertex 0 -1.75 0
      vertex 19.2 -1.75 0
    endloop
  endfacet
  facet normal 0 -1 0
    outer loop
      vertex 19.2 -1.75 1.7
      vertex 0 -1.75 1.7
      vertex 19.2 -1.75 0
    endloop
  endfacet
  facet normal -0 -0 -1
    outer loop
      vertex 0 -1.75 0
      vertex 0 1.75 0
      vertex 19.2 -1.75 0
    endloop
  endfacet
  facet normal 0 0 -1
    outer loop
      vertex 19.2 -1.75 0
      vertex 0 1.75 0
      vertex 19.2 1.75 0
    endloop
  endfacet
  facet normal 0 1 0
    outer loop
      vertex 0 1.75 0
      vertex 0 1.75 1.7
      vertex 19.2 1.75 0
    endloop
  endfacet
  facet normal 0 1 0
    outer loop
      vertex 19.2 1.75 0
      vertex 0 1.75 1.7
      vertex 19.2 1.75 1.7
    endloop
  endfacet
  facet normal 0 -0 1
    outer loop
      vertex 0 1.75 1.7
      vertex 0 0.85 1.7
      vertex 19.2 0.85 1.7
    endloop
  endfacet
  facet normal 0 0 1
    outer loop
      vertex 19.2 1.75 1.7
      vertex 0 1.75 1.7
      vertex 19.2 0.85 1.7
    endloop
  endfacet
  facet normal 0 1 -2.46716e-16
    outer loop
      vertex 0 0.85 1.7
      vertex 0 0.85 3.5
      vertex 19.2 0.85 1.7
    endloop
  endfacet
  facet normal 0 1 -2.46716e-16
    outer loop
      vertex 19.2 0.85 1.7
      vertex 0 0.85 3.5
      vertex 19.2 0.85 3.5
    endloop
  endfacet
  facet normal 0 -0 1
    outer loop
      vertex 0 0.85 3.5
      vertex 0 -0.85 3.5
      vertex 19.2 -0.85 3.5
    endloop
  endfacet
  facet normal 0 0 1
    outer loop
      vertex 19.2 0.85 3.5
      vertex 0 0.85 3.5
      vertex 19.2 -0.85 3.5
    endloop
  endfacet
  facet normal 0 -1 1.85037e-16
    outer loop
      vertex 0 -0.85 3.5
      vertex 0 -0.85 1.7
      vertex 19.2 -0.85 1.7
    endloop
  endfacet
  facet normal 0 -1 1.85037e-16
    outer loop
      vertex 19.2 -0.85 3.5
      vertex 0 -0.85 3.5
      vertex 19.2 -0.85 1.7
    endloop
  endfacet
  facet normal 0 -0 1
    outer loop
      vertex 0 -0.85 1.7
      vertex 0 -1.75 1.7
      vertex 19.2 -1.75 1.7
    endloop
  endfacet
  facet normal 0 0 1
    outer loop
      vertex 19.2 -0.85 1.7
      vertex 0 -0.85 1.7
      vertex 19.2 -1.75 1.7
    endloop
  endfacet
  facet normal 1 0 -0
    outer loop
      vertex 19.2 -1.75 1.7
      vertex 19.2 -1.75 0
      vertex 19.2 1.75 0
    endloop
  endfacet
  facet normal 1 0 -0
    outer loop
      vertex 19.2 -0.85 1.7
      vertex 19.2 -1.75 1.7
      vertex 19.2 1.75 0
    endloop
  endfacet
  facet normal 1 0 -0
    outer loop
      vertex 19.2 0.85 1.7
      vertex 19.2 -0.85 1.7
      vertex 19.2 1.75 0
    endloop
  endfacet
  facet normal 1 0 0
    outer loop
      vertex 19.2 1.75 1.7
      vertex 19.2 0.85 1.7
      vertex 19.2 1.75 0
    endloop
  endfacet
  facet normal 1 0 0
    outer loop
      vertex 19.2 0.85 3.5
      vertex 19.2 -0.85 1.7
      vertex 19.2 0.85 1.7
    endloop
  endfacet
  facet normal 1 0 -0
    outer loop
      vertex 19.2 -0.85 3.5
      vertex 19.2 -0.85 1.7
      vertex 19.2 0.85 3.5
    endloop
  endfacet
endsolid OpenSCAD_Model
